<?xml version="1.0" standalone="no"?>
<!DOCTYPE svg PUBLIC "-//W3C//DTD SVG 20010904//EN"
 "http://www.w3.org/TR/2001/REC-SVG-20010904/DTD/svg10.dtd">
<svg version="1.0" xmlns="http://www.w3.org/2000/svg"
 width="512.000000pt" height="512.000000pt" viewBox="0 0 512.000000 512.000000"
 preserveAspectRatio="xMidYMid meet">
<metadata>
Created by potrace 1.11, written by Peter Selinger 2001-2013
</metadata>
<g transform="translate(0.000000,512.000000) scale(0.100000,-0.100000)"
fill="#000000" stroke="none">
<path d="M0 2560 l0 -2560 2560 0 2560 0 0 2560 0 2560 -2560 0 -2560 0 0
-2560z m1020 1285 c107 0 256 3 331 7 l136 8 7 -40 c10 -61 -1 -90 -33 -90
-47 0 -99 -20 -130 -49 -38 -35 -41 -83 -12 -165 18 -52 793 -1589 813 -1613
7 -8 16 -9 27 -3 9 5 81 136 160 292 l144 283 -249 500 c-137 275 -266 526
-286 557 -80 123 -154 179 -258 194 -25 4 -48 12 -52 18 -11 16 -10 104 1 110
5 3 124 1 264 -6 194 -9 308 -9 478 0 176 9 225 9 231 -1 5 -6 7 -34 6 -62
l-3 -50 -46 -6 c-102 -15 -144 -58 -137 -142 4 -43 32 -111 148 -351 79 -163
146 -299 149 -300 9 -6 262 522 283 587 26 84 24 114 -12 147 -28 26 -94 48
-201 65 -42 6 -52 27 -42 89 l6 38 56 -6 c123 -14 530 -18 670 -7 79 6 145 10
147 8 9 -9 14 -93 6 -105 -5 -7 -37 -20 -71 -28 -82 -19 -163 -58 -203 -97
-64 -64 -153 -220 -329 -574 -98 -199 -179 -366 -179 -372 0 -18 379 -781 388
-781 17 0 27 20 125 235 52 116 202 435 332 710 270 570 311 663 321 722 14
88 -31 129 -171 158 -44 9 -82 18 -84 21 -7 6 -6 102 1 109 3 3 79 0 169 -6
105 -7 244 -9 389 -4 124 4 245 8 270 9 l45 1 3 -52 c3 -60 10 -55 -113 -92
-137 -41 -197 -99 -309 -300 -30 -53 -262 -537 -517 -1076 -254 -539 -473
-995 -487 -1013 -30 -40 -70 -62 -111 -62 -30 0 -33 4 -268 480 -130 264 -240
477 -244 473 -3 -5 -109 -204 -233 -443 -250 -480 -273 -514 -343 -508 l-37 3
-234 465 c-957 1899 -964 1912 -1055 1958 -27 13 -78 29 -115 36 l-67 12 -3
48 c-5 80 -13 77 170 69 90 -5 251 -8 358 -8z"/>
</g>
</svg>
